<mxfile host="65bd71144e">
    <diagram id="oQENtNxk01cAL4966zkK" name="Página-1">
        <mxGraphModel dx="816" dy="424" grid="1" gridSize="10" guides="1" tooltips="1" connect="1" arrows="1" fold="1" page="1" pageScale="1" pageWidth="827" pageHeight="1169" math="0" shadow="0">
            <root>
                <mxCell id="0"/>
                <mxCell id="1" parent="0"/>
                <mxCell id="2" value="Proyecto" style="swimlane;" vertex="1" parent="1">
                    <mxGeometry x="40" y="110" width="200" height="130" as="geometry"/>
                </mxCell>
                <mxCell id="3" value="Nombre: 1 Texto&lt;br/&gt;Fecha de inicio: 1 Tiempo&lt;br/&gt;Fecha de fin: 0..1 Tiempo&lt;br&gt;&lt;br&gt;" style="text;html=1;align=center;verticalAlign=middle;resizable=0;points=[];autosize=1;strokeColor=none;fillColor=none;" vertex="1" parent="1">
                    <mxGeometry x="50" y="135" width="160" height="70" as="geometry"/>
                </mxCell>
                <mxCell id="5" value="Miembro del equipo" style="swimlane;" vertex="1" parent="1">
                    <mxGeometry x="270" y="110" width="200" height="130" as="geometry"/>
                </mxCell>
                <mxCell id="6" value="Nombre: 1 Texto&lt;br/&gt;Apellidos: 1 Texto&lt;br/&gt;Rol: 0..* Texto&amp;nbsp;" style="text;html=1;align=center;verticalAlign=middle;resizable=0;points=[];autosize=1;strokeColor=none;fillColor=none;" vertex="1" parent="5">
                    <mxGeometry x="40" y="40" width="120" height="60" as="geometry"/>
                </mxCell>
                <mxCell id="7" value="Lugar de actuacion" style="swimlane;" vertex="1" parent="1">
                    <mxGeometry x="510" y="105" width="200" height="130" as="geometry"/>
                </mxCell>
                <mxCell id="8" value="Nombre: 0..* Texto&lt;br/&gt;Coordenada X: 1 Número&lt;br/&gt;Coordenada Y: 1 Número" style="text;html=1;align=center;verticalAlign=middle;resizable=0;points=[];autosize=1;strokeColor=none;fillColor=none;" vertex="1" parent="7">
                    <mxGeometry x="20" y="40" width="160" height="60" as="geometry"/>
                </mxCell>
            </root>
        </mxGraphModel>
    </diagram>
</mxfile>